<svg width="39" height="30" viewBox="0 0 39 30" fill="none" xmlns="http://www.w3.org/2000/svg">
<path d="M28.4219 22.0919C30.3924 20.2729 31.605 17.7719 31.605 15.0434C31.605 12.315 30.3924 9.81396 28.4219 8.0708" stroke="red" stroke-width="1.5" stroke-miterlimit="10" stroke-linecap="round" stroke-linejoin="round"/>
<path d="M33.2734 25.2751C36.1534 22.6982 37.745 18.9845 37.745 15.1193C37.745 11.254 36.0776 7.54033 33.2734 4.8877" stroke="red" stroke-width="1.5" stroke-miterlimit="10" stroke-linecap="round" stroke-linejoin="round"/>
<path d="M8.8664 8.82857L22.2811 1.24962C22.5085 1.09804 22.6601 1.17383 22.7359 1.24962C22.8117 1.32541 22.9632 1.4012 22.9632 1.62857V28.5338C22.9632 28.7612 22.8117 28.9128 22.7359 28.9128C22.6601 28.9886 22.5085 29.0644 22.2811 28.9128L8.8664 21.4096M1.74219 19.5907V10.5717C1.74219 9.58647 2.57587 8.75278 3.56113 8.75278H8.94219V21.4096H3.48535C2.50008 21.4096 1.74219 20.6517 1.74219 19.5907Z" stroke="white" stroke-width="1.5" stroke-miterlimit="10" stroke-linecap="round" stroke-linejoin="round"/>
<path d="M14.9297 9.73815L19.5528 7.38867" stroke="white" stroke-width="1.5" stroke-miterlimit="10" stroke-linecap="round" stroke-linejoin="round"/>
</svg>
