<svg display="none" xmlns="http://www.w3.org/2000/svg">
    <symbol id="btn-bottom" viewBox="0 0 10 7">
    <path fill-rule="evenodd" clip-rule="evenodd" d="M5.33739 6.84961L10 2.33088L10 0.851181L5.338 5.36933L0.703125 0.849609L0.703125 2.33046L5.33739 6.84961Z"/>
    </symbol>

    <symbol id="btn-go" viewBox="0 0 17 17">
        <path d="M3.3252 0.836487H15.75V12.4338"/>
        <path d="M15.348 1.28552L1.54688 15" />
    </symbol>

    <symbol id="btn-left" viewBox="0 0 37 36">
        <path d="M17.4509 5.01316C17.4509 5.01316 17.19 17.879 0.104462 18.6831L36.1016 18.6831" />
        <path d="M16.9001 30.9868C16.9001 30.9868 16.6475 19.4069 0.101484 18.6831"/>
    </symbol>

    <symbol id="btn-right" viewBox="0 0 37 36">
        <path d="M18.7522 5.01316C18.7522 5.01316 19.0131 17.879 36.0987 18.6831L0.101562 18.6831"/>
        <path d="M19.3029 30.9868C19.3029 30.9868 19.5555 19.4069 36.1015 18.6831"/>
    </symbol>

    <symbol id="checkmarck" viewBox="0 0 14 14">
        <path fill-rule="evenodd" clip-rule="evenodd" d="M12.7523 2.70813C13.0826 3.03838 13.0826 3.57381 12.7523 3.90404L5.36441 11.292C5.20582 11.4506 4.99073 11.5397 4.76646 11.5397C4.54217 11.5397 4.32708 11.4506 4.1685 11.292L1.24769 8.37118C0.917437 8.04093 0.917437 7.5055 1.24769 7.17526C1.57793 6.84501 2.11336 6.84501 2.4436 7.17526L4.76646 9.49811L11.5565 2.70813C11.8867 2.37789 12.4221 2.37789 12.7523 2.70813Z" fill="#8B32FE"/>
    </symbol>

    <symbol id="i" viewBox="0 0 8 31">
        <path d="M6.91079 8.81262H1.07812V30.6249H6.91079V8.81262Z" fill="#1B1B1B"/>
        <path d="M3.99178 7.22688C3.88476 7.22688 3.77774 7.22019 3.67072 7.2135C3.5637 7.20012 3.45668 7.18675 3.34966 7.16668C3.24264 7.14661 3.13561 7.11986 3.03528 7.08641C2.93495 7.05297 2.82793 7.01953 2.72759 6.97939C2.62726 6.93926 2.52693 6.89244 2.43329 6.83893C2.33964 6.78542 2.246 6.73191 2.15235 6.67171C2.0654 6.61151 1.97845 6.54462 1.89149 6.47773C1.81122 6.41084 1.73096 6.33726 1.65069 6.257C1.57712 6.18342 1.50354 6.10316 1.42996 6.0162C1.36307 5.92925 1.29618 5.84898 1.23598 5.75534C1.17578 5.66838 1.12227 5.57474 1.06876 5.47441C1.01525 5.38076 0.968431 5.28043 0.928298 5.1801C0.888165 5.07976 0.848032 4.97943 0.821277 4.87241C0.787833 4.77208 0.761077 4.66506 0.741011 4.55803C0.720944 4.45101 0.700878 4.34399 0.694189 4.23697C0.694189 4.14333 0.6875 4.03631 0.6875 3.92928C0.6875 3.82226 0.694189 3.71524 0.700878 3.60822C0.714255 3.5012 0.727633 3.39418 0.7477 3.28716C0.767766 3.18013 0.794521 3.07311 0.827966 2.97278C0.86141 2.87245 0.894854 2.76543 0.934987 2.66509C0.97512 2.56476 1.02194 2.46443 1.07545 2.37079C1.12896 2.27714 1.18247 2.1835 1.24267 2.08985C1.30287 2.0029 1.36976 1.91595 1.43665 1.82899C1.50354 1.74204 1.57712 1.66846 1.65738 1.58819C1.73096 1.51461 1.81122 1.44104 1.89818 1.36746C1.98513 1.30057 2.0654 1.23368 2.15904 1.17348C2.246 1.11328 2.33964 1.05977 2.43997 1.00626C2.54031 0.952753 2.63395 0.905931 2.73428 0.865798C2.83462 0.825665 2.93495 0.785532 3.04197 0.758777C3.1423 0.725333 3.24932 0.698577 3.35635 0.678511C3.46337 0.658444 3.57039 0.638378 3.67741 0.631689C3.77105 0.631689 3.88476 0.625 3.99178 0.625C4.09881 0.625 4.20583 0.631689 4.31285 0.638378C4.41987 0.651755 4.52689 0.665133 4.63391 0.6852C4.74093 0.705266 4.84796 0.732021 4.94829 0.765466C5.04862 0.79891 5.15564 0.832354 5.25597 0.872487C5.35631 0.91262 5.45664 0.959442 5.55028 1.01295C5.64393 1.06646 5.73757 1.11997 5.83121 1.18017C5.92486 1.24037 6.00512 1.30726 6.09208 1.37415C6.17235 1.44104 6.25261 1.51461 6.33288 1.59488C6.40645 1.66846 6.48003 1.74872 6.55361 1.83568C6.6205 1.92263 6.68739 2.0029 6.74758 2.09654C6.80778 2.1835 6.8613 2.27714 6.91481 2.37747C6.96832 2.47112 7.01514 2.57145 7.05527 2.67178C7.0954 2.77212 7.13554 2.87245 7.16229 2.97947C7.19574 3.0798 7.22249 3.18682 7.24256 3.29385C7.26263 3.40087 7.28269 3.50789 7.28938 3.61491C7.30276 3.72193 7.30276 3.82895 7.30276 3.93597C7.30276 4.04299 7.29607 4.15002 7.28938 4.25704C7.28269 4.36406 7.26263 4.47108 7.24256 4.5781C7.22249 4.68512 7.19574 4.79214 7.16229 4.89248C7.12885 4.99281 7.0954 5.09983 7.05527 5.20016C7.01514 5.3005 6.96832 5.40083 6.91481 5.49447C6.8613 5.58812 6.80778 5.68176 6.74758 5.7754C6.68739 5.86236 6.6205 5.94931 6.55361 6.03627C6.48672 6.12322 6.41314 6.1968 6.33288 6.27707C6.2593 6.35064 6.17903 6.42422 6.09208 6.4978C6.00512 6.56469 5.92486 6.63157 5.83121 6.69177C5.74426 6.75197 5.65062 6.80548 5.55028 6.85899C5.45664 6.9125 5.35631 6.95933 5.25597 6.99946C5.15564 7.03959 5.05531 7.07973 4.94829 7.10648C4.84796 7.13993 4.74093 7.16668 4.63391 7.18675C4.52689 7.20681 4.41987 7.22688 4.31285 7.23357C4.20583 7.22688 4.09881 7.22688 3.99178 7.22688Z" />
            </symbol>


        <symbol id="email" viewBox="0 0 16 16">
        <path d="M15.25 2.66689V13.4723H0.75V2.66689M0.75 2.52769H15.25V2.80609L8 8.66235L0.75 2.80609V2.52769Z" stroke="#1B1B1B" stroke-width="1.5" stroke-linecap="round" stroke-linejoin="round"/>
        </symbol>

        <symbol id="melody" viewBox="0 0 39 30">
        <path d="M28.4219 22.0919C30.3924 20.2729 31.605 17.7719 31.605 15.0434C31.605 12.315 30.3924 9.81396 28.4219 8.0708"/>
        <path d="M33.2734 25.2751C36.1534 22.6982 37.745 18.9845 37.745 15.1193C37.745 11.254 36.0776 7.54033 33.2734 4.8877"/>
        <path d="M8.8664 8.82857L22.2811 1.24962C22.5085 1.09804 22.6601 1.17383 22.7359 1.24962C22.8117 1.32541 22.9632 1.4012 22.9632 1.62857V28.5338C22.9632 28.7612 22.8117 28.9128 22.7359 28.9128C22.6601 28.9886 22.5085 29.0644 22.2811 28.9128L8.8664 21.4096M1.74219 19.5907V10.5717C1.74219 9.58647 2.57587 8.75278 3.56113 8.75278H8.94219V21.4096H3.48535C2.50008 21.4096 1.74219 20.6517 1.74219 19.5907Z" />
        <path d="M14.9297 9.73815L19.5528 7.38867" />
        </symbol>

        <symbol id="phone" viewBox="0 0 16 16">
            <path d="M12.1958 7.39964C12.2205 6.61332 11.8 5.72017 11.071 5.01037C10.3419 4.30275 9.42492 3.89364 8.61422 3.91751M15.2459 7.38857C15.3166 6.09575 14.4694 4.39285 13.0876 3.0504C11.6837 1.68621 9.97208 0.881457 8.6251 0.952122M3.05779 1.90003C2.92725 1.90003 2.80522 1.94871 2.7143 2.03711L1.20808 3.50151C0.933142 3.76882 0.716781 4.35496 0.754225 4.73122C0.757621 4.76242 1.13588 8.02183 4.62674 11.4167C7.97686 14.6734 11.3258 15.0381 11.3588 15.0413C11.7453 15.0774 12.1967 15.0453 12.6226 14.6001L14.1286 13.1357C14.318 12.9516 14.318 12.6516 14.1286 12.4673L11.6894 10.0872C11.5075 9.91056 11.1843 9.91056 11.0018 10.0872L10.5042 10.5711C10.028 11.0341 9.11494 11.3337 8.44043 11.236C8.31521 11.2182 7.5313 11.3751 6.02798 9.91358C4.52488 8.45321 4.78646 7.80635 4.76798 7.68481C4.66758 7.01741 4.96173 6.15476 5.45234 5.67828L5.94989 5.1947C6.04103 5.1063 6.09095 4.98765 6.09116 4.86074C6.09116 4.73382 6.04103 4.61493 5.94989 4.52655L3.40153 2.03758C3.31062 1.94871 3.18858 1.90003 3.05779 1.90003Z" stroke="#1B1B1B" stroke-width="1.5" stroke-miterlimit="10" stroke-linecap="round" stroke-linejoin="round"/>
        </symbol>

        <symbol id="paligon" viewBox="0 0 20 24">
            <path d="M18.5 12L1.25 21.9593L1.25 2.04071L18.5 12Z"/>
        </symbol>

        <symbol id="random-1"  viewBox="0 0 9 17">
        <path d="M0.3125 8.08398C0.3125 12.5022 3.8941 16.084 8.3125 16.084V14.084C4.9987 14.084 2.3125 11.3978 2.3125 8.08398C2.3125 6.42718 2.9841 4.92718 4.0699 3.84138L4.3125 3.59878V6.08398H6.3125V0.0839844H0.3125V2.08398H2.9989L2.6557 2.42718C1.2079 3.87478 0.3125 5.87478 0.3125 8.08398Z" fill="white"/>
        </symbol>

        <symbol id="random-2"  viewBox="0 0 9 17">
        <path d="M8.3125 8.08398C8.3125 3.66578 4.7309 0.0839844 0.3125 0.0839844V2.08398C3.6263 2.08398 6.3125 4.77018 6.3125 8.08398C6.3125 9.74078 5.6409 11.2408 4.5551 12.3266L4.3125 12.5692V10.084H2.3125V16.084H8.3125V14.084H5.6261L5.9693 13.7408C7.4171 12.2932 8.3125 10.2932 8.3125 8.08398Z" fill="white"/>
        </symbol>

        <symbol id="time" viewBox="0 0 14 14">
        <path d="M7.00005 0.799805C10.406 0.799805 13.2 3.59461 13.2 6.9998C13.2 10.405 10.4052 13.1998 7.00005 13.1998C3.59486 13.1998 0.800049 10.4058 0.800049 6.9998C0.800049 3.59383 3.50732 0.799805 7.00005 0.799805Z"/>
<path d="M7 3.76855V7.087L9.88156 9.26985"/>
        </symbol>

        <symbol id="user" viewBox="0 0 16 16">
<path d="M15.2 15.673C15.2 11.285 12.4442 9.58971 8.00001 9.58971C3.55597 9.58971 0.800049 11.285 0.800049 15.673"/>
<path d="M5.26465 3.88942C5.26465 2.27385 6.60341 0.952019 8.23961 0.952019C9.87581 0.952019 11.1402 2.27385 11.2146 3.88942C11.2146 5.50498 9.87581 6.82684 8.23961 6.82684C6.60341 6.82684 5.26465 5.50498 5.26465 3.88942Z" />
        </symbol>

</svg>